<mxfile host="Electron" modified="2024-03-03T17:05:15.931Z" agent="Mozilla/5.0 (Windows NT 10.0; Win64; x64) AppleWebKit/537.36 (KHTML, like Gecko) draw.io/22.0.3 Chrome/114.0.5735.289 Electron/25.8.4 Safari/537.36" etag="axvJrNfzX4G2mMjFDqaZ" version="22.0.3" type="device">
  <diagram name="Page-1" id="6738sHdbZR6RLJx59H-w">
    <mxGraphModel dx="1007" dy="530" grid="1" gridSize="10" guides="1" tooltips="1" connect="1" arrows="1" fold="1" page="1" pageScale="1" pageWidth="827" pageHeight="1169" math="0" shadow="0">
      <root>
        <mxCell id="0" />
        <mxCell id="1" parent="0" />
        <mxCell id="8dxtVJAvq-MQs_CcbrjK-3" style="edgeStyle=orthogonalEdgeStyle;rounded=0;orthogonalLoop=1;jettySize=auto;html=1;entryX=0.5;entryY=0;entryDx=0;entryDy=0;" edge="1" parent="1" source="8dxtVJAvq-MQs_CcbrjK-1" target="8dxtVJAvq-MQs_CcbrjK-2">
          <mxGeometry relative="1" as="geometry" />
        </mxCell>
        <mxCell id="8dxtVJAvq-MQs_CcbrjK-1" value="用户提供的关键词" style="rounded=1;whiteSpace=wrap;html=1;" vertex="1" parent="1">
          <mxGeometry x="354" y="120" width="120" height="60" as="geometry" />
        </mxCell>
        <mxCell id="8dxtVJAvq-MQs_CcbrjK-11" style="edgeStyle=orthogonalEdgeStyle;rounded=0;orthogonalLoop=1;jettySize=auto;html=1;exitX=0;exitY=0.5;exitDx=0;exitDy=0;" edge="1" parent="1" source="8dxtVJAvq-MQs_CcbrjK-2" target="8dxtVJAvq-MQs_CcbrjK-4">
          <mxGeometry relative="1" as="geometry" />
        </mxCell>
        <mxCell id="8dxtVJAvq-MQs_CcbrjK-12" style="edgeStyle=orthogonalEdgeStyle;rounded=0;orthogonalLoop=1;jettySize=auto;html=1;entryX=0.5;entryY=0;entryDx=0;entryDy=0;" edge="1" parent="1" source="8dxtVJAvq-MQs_CcbrjK-2" target="8dxtVJAvq-MQs_CcbrjK-6">
          <mxGeometry relative="1" as="geometry" />
        </mxCell>
        <mxCell id="8dxtVJAvq-MQs_CcbrjK-13" style="edgeStyle=orthogonalEdgeStyle;rounded=0;orthogonalLoop=1;jettySize=auto;html=1;entryX=0.5;entryY=0;entryDx=0;entryDy=0;" edge="1" parent="1" source="8dxtVJAvq-MQs_CcbrjK-2" target="8dxtVJAvq-MQs_CcbrjK-5">
          <mxGeometry relative="1" as="geometry" />
        </mxCell>
        <mxCell id="8dxtVJAvq-MQs_CcbrjK-2" value="词向量分析技术" style="rounded=1;whiteSpace=wrap;html=1;" vertex="1" parent="1">
          <mxGeometry x="354" y="200" width="120" height="60" as="geometry" />
        </mxCell>
        <mxCell id="8dxtVJAvq-MQs_CcbrjK-18" style="edgeStyle=orthogonalEdgeStyle;rounded=0;orthogonalLoop=1;jettySize=auto;html=1;entryX=0;entryY=0.5;entryDx=0;entryDy=0;" edge="1" parent="1" source="8dxtVJAvq-MQs_CcbrjK-4" target="8dxtVJAvq-MQs_CcbrjK-15">
          <mxGeometry relative="1" as="geometry" />
        </mxCell>
        <mxCell id="8dxtVJAvq-MQs_CcbrjK-4" value="关键词2" style="rounded=1;whiteSpace=wrap;html=1;" vertex="1" parent="1">
          <mxGeometry x="234" y="280" width="120" height="60" as="geometry" />
        </mxCell>
        <mxCell id="8dxtVJAvq-MQs_CcbrjK-19" style="edgeStyle=orthogonalEdgeStyle;rounded=0;orthogonalLoop=1;jettySize=auto;html=1;entryX=1;entryY=0.5;entryDx=0;entryDy=0;" edge="1" parent="1" source="8dxtVJAvq-MQs_CcbrjK-5" target="8dxtVJAvq-MQs_CcbrjK-15">
          <mxGeometry relative="1" as="geometry">
            <Array as="points">
              <mxPoint x="540" y="430" />
            </Array>
          </mxGeometry>
        </mxCell>
        <mxCell id="8dxtVJAvq-MQs_CcbrjK-5" value="关键词n-1" style="rounded=1;whiteSpace=wrap;html=1;" vertex="1" parent="1">
          <mxGeometry x="480" y="280" width="120" height="60" as="geometry" />
        </mxCell>
        <mxCell id="8dxtVJAvq-MQs_CcbrjK-20" style="edgeStyle=orthogonalEdgeStyle;rounded=0;orthogonalLoop=1;jettySize=auto;html=1;entryX=1;entryY=0.5;entryDx=0;entryDy=0;" edge="1" parent="1" source="8dxtVJAvq-MQs_CcbrjK-6" target="8dxtVJAvq-MQs_CcbrjK-15">
          <mxGeometry relative="1" as="geometry">
            <Array as="points">
              <mxPoint x="690" y="430" />
            </Array>
          </mxGeometry>
        </mxCell>
        <mxCell id="8dxtVJAvq-MQs_CcbrjK-6" value="关键词n" style="rounded=1;whiteSpace=wrap;html=1;" vertex="1" parent="1">
          <mxGeometry x="630" y="280" width="120" height="60" as="geometry" />
        </mxCell>
        <mxCell id="8dxtVJAvq-MQs_CcbrjK-17" style="edgeStyle=orthogonalEdgeStyle;rounded=0;orthogonalLoop=1;jettySize=auto;html=1;entryX=0;entryY=0.5;entryDx=0;entryDy=0;" edge="1" parent="1" source="8dxtVJAvq-MQs_CcbrjK-7" target="8dxtVJAvq-MQs_CcbrjK-15">
          <mxGeometry relative="1" as="geometry">
            <Array as="points">
              <mxPoint x="160" y="430" />
            </Array>
          </mxGeometry>
        </mxCell>
        <mxCell id="8dxtVJAvq-MQs_CcbrjK-7" value="关键词1" style="rounded=1;whiteSpace=wrap;html=1;" vertex="1" parent="1">
          <mxGeometry x="100" y="280" width="120" height="60" as="geometry" />
        </mxCell>
        <mxCell id="8dxtVJAvq-MQs_CcbrjK-8" value="&lt;b&gt;.....&lt;/b&gt;" style="text;html=1;strokeColor=none;fillColor=none;align=center;verticalAlign=middle;whiteSpace=wrap;rounded=0;" vertex="1" parent="1">
          <mxGeometry x="384" y="295" width="60" height="30" as="geometry" />
        </mxCell>
        <mxCell id="8dxtVJAvq-MQs_CcbrjK-9" style="edgeStyle=orthogonalEdgeStyle;rounded=0;orthogonalLoop=1;jettySize=auto;html=1;entryX=0.583;entryY=0;entryDx=0;entryDy=0;entryPerimeter=0;" edge="1" parent="1" source="8dxtVJAvq-MQs_CcbrjK-2" target="8dxtVJAvq-MQs_CcbrjK-7">
          <mxGeometry relative="1" as="geometry" />
        </mxCell>
        <mxCell id="8dxtVJAvq-MQs_CcbrjK-23" style="edgeStyle=orthogonalEdgeStyle;rounded=0;orthogonalLoop=1;jettySize=auto;html=1;" edge="1" parent="1" source="8dxtVJAvq-MQs_CcbrjK-15" target="8dxtVJAvq-MQs_CcbrjK-22">
          <mxGeometry relative="1" as="geometry" />
        </mxCell>
        <mxCell id="8dxtVJAvq-MQs_CcbrjK-15" value="综合评估" style="rounded=1;whiteSpace=wrap;html=1;" vertex="1" parent="1">
          <mxGeometry x="354" y="400" width="120" height="60" as="geometry" />
        </mxCell>
        <mxCell id="8dxtVJAvq-MQs_CcbrjK-22" value="送入查询模块" style="rounded=1;whiteSpace=wrap;html=1;" vertex="1" parent="1">
          <mxGeometry x="354" y="500" width="120" height="60" as="geometry" />
        </mxCell>
      </root>
    </mxGraphModel>
  </diagram>
</mxfile>
